<svg viewBox="0 0 512 512"
  xmlns="http://www.w3.org/2000/svg" role="img" aria-label="Media Labs — chip with embedded sound bars (thin, even stroke)">
  <!-- Red rounded tile -->
  <rect x="0" y="0" width="512" height="512" rx="96" fill="#8E1B1B"/>

  <!-- CHIP OUTLINE (even stroke) -->
  <g fill="none" stroke="#FFFFFF" stroke-width="10" stroke-linecap="round" stroke-linejoin="round" transform="translate(32, 32) scale(0.875)" vector-effect="non-scaling-stroke">
    <path d="M411.546,92.369H100.453c-4.466,0-8.084,3.618-8.084,8.084v311.092c0,4.466,3.618,8.084,8.084,8.084h228.114
      c4.466,0,8.084-3.619,8.084-8.084s-3.618-8.084-8.084-8.084h-220.03V108.538h294.924v294.924h-45.792
      c-4.466,0-8.084,3.619-8.084,8.084s3.618,8.084,8.084,8.084h53.876c4.466,0,8.084-3.619,8.084-8.084V100.453
      C419.63,95.989,416.011,92.369,411.546,92.369z"/>
    <path d="M503.915,295.084c4.466,0,8.084-3.618,8.084-8.084c0-4.466-3.618-8.084-8.084-8.084h-46.557v-45.83h46.557
      c4.466,0,8.084-3.618,8.084-8.084c0-4.466-3.618-8.084-8.084-8.084h-46.557v-45.832h46.556v0.001c4.466,0,8.084-3.619,8.084-8.084
      c0-4.466-3.618-8.084-8.084-8.084h-46.557v-45.83h46.557c4.466,0,8.084-3.619,8.084-8.084s-3.618-8.084-8.084-8.084h-46.563
      c-0.104-21.059-17.213-38.169-38.272-38.272V8.084c0-4.466-3.619-8.084-8.084-8.084c-4.465,0-8.084,3.619-8.084,8.084v46.559
      h-45.829V8.084c0-4.466-3.62-8.084-8.084-8.084c-4.466,0-8.084,3.619-8.084,8.084v46.559h-45.831V8.084
      c0-4.466-3.619-8.084-8.084-8.084s-8.084,3.619-8.084,8.084v46.559h-45.83V8.084C233.084,3.619,229.466,0,225,0
      s-8.084,3.619-8.084,8.084v46.559h-45.83V8.084c0-4.466-3.619-8.084-8.084-8.084s-8.084,3.619-8.084,8.084v46.559h-45.83V8.084
      c0-4.466-3.619-8.084-8.084-8.084s-8.084,3.619-8.084,8.084v46.564c-21.06,0.102-38.17,17.213-38.273,38.272H8.085
      c-4.466,0-8.084,3.619-8.084,8.084s3.618,8.084,8.084,8.084h46.557v45.83H8.085c-4.466,0-8.084,3.618-8.084,8.084
      c0,4.466,3.618,8.084,8.084,8.084h46.557v45.832H8.085c-4.466,0-8.084,3.619-8.084,8.084c0,4.466,3.618,8.084,8.084,8.084h46.557
      v45.83H8.085c-4.466,0-8.084,3.619-8.084,8.084c0,4.466,3.618,8.084,8.084,8.084h46.557v45.83H8.085
      c-4.466,0-8.084,3.619-8.084,8.084c0,4.466,3.618,8.084,8.084,8.084h46.557v45.83H8.085c-4.466,0-8.084,3.619-8.084,8.084
      c0,4.466,3.618,8.084,8.084,8.084h46.563c0.103,21.06,17.214,38.169,38.273,38.272v46.562c0,4.466,3.618,8.084,8.084,8.084
      c4.466,0,8.084-3.618,8.084-8.084v-46.559h45.83v46.559c0,4.466,3.618,8.084,8.084,8.084c4.466,0,8.084-3.618,8.084-8.084
      v-46.559h45.83v46.559c0,4.466,3.618,8.084,8.084,8.084c4.466,0,8.084-3.618,8.084-8.084v-46.559h45.83v46.559
      c0,4.466,3.618,8.084,8.084,8.084c4.466,0,8.084-3.618,8.084-8.084v-46.559h45.831v46.559c0,4.466,3.619,8.084,8.084,8.084
      c4.465,0,8.084-3.618,8.084-8.084v-46.559h45.829v46.559c0,4.466,3.62,8.084,8.084,8.084c4.466,0,8.084-3.618,8.084-8.084
      v-46.564c21.059-0.104,38.169-17.213,38.272-38.272h46.563c4.466,0,8.084-3.619,8.084-8.084s-3.618-8.084-8.084-8.084h-46.557
      v-45.83h46.557c4.466,0,8.084-3.619,8.084-8.084s-3.618-8.084-8.084-8.084h-46.557v-45.829H503.915z"/>
  </g>
</svg>
